<svg xmlns="http://www.w3.org/2000/svg" width="28" height="28" viewBox="0 0 28 28">
  <g id="Group_98" data-name="Group 98" transform="translate(-40 -496)">
    <g id="monitor_outline" transform="translate(45.752 501.67)">
      <path id="Path_38" data-name="Path 38" d="M.24,6.175v.06C.24,7.164.24,7.9.291,8.5A4.022,4.022,0,0,0,.7,10.1a3.922,3.922,0,0,0,1.61,1.61,4.022,4.022,0,0,0,1.6.413c.595.051,1.333.051,2.262.051H7.657a.614.614,0,0,0-.022.163v2.86H3.958a.613.613,0,1,0,0,1.226h8.58a.613.613,0,0,0,0-1.226H8.861v-2.86a.613.613,0,0,0-.022-.163h1.482c.929,0,1.667,0,2.262-.051a4.022,4.022,0,0,0,1.6-.413,3.922,3.922,0,0,0,1.61-1.61,4.022,4.022,0,0,0,.413-1.6c.051-.595.051-1.333.051-2.262v-.06c0-.929,0-1.667-.051-2.262a4.022,4.022,0,0,0-.413-1.6A3.922,3.922,0,0,0,14.183.7a4.022,4.022,0,0,0-1.6-.413C11.988.24,11.249.24,10.321.24H6.175c-.929,0-1.667,0-2.262.051A4.022,4.022,0,0,0,2.313.7,3.922,3.922,0,0,0,.7,2.314a4.022,4.022,0,0,0-.413,1.6C.24,4.508.24,5.247.24,6.175ZM1.856,9.481a2.755,2.755,0,0,1-.263-1.094c-.045-.533-.046-1.216-.046-2.181s0-1.648.046-2.181A2.755,2.755,0,0,1,1.856,2.93,2.615,2.615,0,0,1,2.93,1.856a2.755,2.755,0,0,1,1.094-.263c.533-.045,1.216-.046,2.181-.046h4.086c.965,0,1.648,0,2.181.046a2.755,2.755,0,0,1,1.094.263A2.615,2.615,0,0,1,14.64,2.93,2.754,2.754,0,0,1,14.9,4.024c.045.533.046,1.216.046,2.181s0,1.648-.046,2.181a2.754,2.754,0,0,1-.263,1.094,2.615,2.615,0,0,1-1.073,1.073,2.754,2.754,0,0,1-1.094.263c-.533.045-1.216.046-2.181.046H6.205c-.965,0-1.648,0-2.181-.046a2.754,2.754,0,0,1-1.094-.263A2.615,2.615,0,0,1,1.856,9.481Z" fill="#5f5f5f" fill-rule="evenodd"/>
    </g>
    <rect id="Rectangle_398" data-name="Rectangle 398" width="28" height="28" transform="translate(40 496)" fill="none"/>
  </g>
</svg>
